<svg width="24" height="24" viewBox="0 0 24 24" fill="none" xmlns="http://www.w3.org/2000/svg">
<path fill-rule="evenodd" clip-rule="evenodd" d="M3.5625 1.875V3.75H18.5625V15.18L13.5131 20.25H5.4375V12.375H3.5625V22.125H14.2913L20.4375 15.9525V1.875H3.5625ZM11.4375 18.75H13.3125V15H17.0625V13.125H11.4375V18.75ZM5.69625 5.625C7.125 5.625 7.62937 6.78 7.62937 8.055C7.62937 9.61125 6.93375 10.5 5.4375 10.5H3.5625V5.625H5.69625ZM4.6875 9.375V6.75H5.27062C6.225 6.75 6.30937 7.71375 6.30937 8.0325C6.30937 8.50875 6.18937 9.375 5.36625 9.375H4.6875ZM8.07187 8.0625C8.07187 6.64125 8.94187 5.625 10.245 5.625C11.5462 5.625 12.4181 6.64125 12.4181 8.0625C12.4181 9.48375 11.5462 10.5 10.245 10.5C8.94187 10.5 8.07187 9.48375 8.07187 8.0625ZM10.245 9.34125C9.90938 9.34125 9.39188 9.0975 9.39188 8.0625C9.39188 7.0275 9.90938 6.78375 10.245 6.78375C10.5806 6.78375 11.0963 7.0275 11.0963 8.0625C11.0963 9.0975 10.5806 9.34125 10.245 9.34125ZM15.7613 7.46625C15.7369 7.06125 15.6169 6.75375 15.0712 6.75375C14.4544 6.75375 14.2575 7.38 14.2575 8.0025C14.2575 8.62125 14.4544 9.35625 15.0712 9.35625C15.5156 9.35625 15.69 9.0825 15.7669 8.6775H17.0625C17.0625 9.48375 16.3612 10.5 15.1088 10.5C13.7231 10.5 12.9375 9.3975 12.9375 8.0325C12.9375 6.5775 13.7887 5.625 15.1088 5.625C16.2825 5.6325 16.9312 6.255 17.0456 7.46625H15.7613Z" fill="#2E2E2E"/>
</svg>
