<svg xmlns="http://www.w3.org/2000/svg" height="50" viewBox="0 0 211 50" width="211">
    <path d="M21.7 23.8c11 0 24.1-2.6 24.1-13.1C45.8 3.2 38.2.4 31.2.4 20.6.4 1 6.4 1 27.4 1 37.9 9 44 21.8 44 35.2 44 45 35.3 48 23.5 40.1 37 30 41.4 21.8 41.4c-10.1 0-14-7.6-14-14a23.4 23.4 0 0 1 23.5-25c6 0 9.7 4 9.7 8.3 0 11.9-17.2 11.6-25 11.6h-3.8L10.6 24a44 44 0 0 1 14 4.2c11.1 5.6 21.6 20.6 35.6 20.6 5 0 6.4-1.6 7.3-3-6.8 4.4-18.3-3.1-24.4-9-5.1-4.8-9.6-10.2-21.4-13" fill="#ff8200"/>
    <path d="M90.3 44c-.5 0-.7-.2-.8-.6l-7-14.5h-6.1c-.2 0-.3.1-.3.4v14.1c0 .4-.2.6-.6.6h-5.2c-.3 0-.5-.2-.5-.6V7.3c0-.3.2-.6.5-.6h14c6.6 0 11.5 4.6 11.5 11.2 0 4.8-2.7 8.6-6.9 10.2l7.6 15.2c.2.4 0 .7-.4.7h-5.8zm-.7-26.1c0-3.3-2.3-5.3-5.5-5.3h-7.7c-.2 0-.4 0-.4.3v9.9c0 .2.2.3.4.3H84c3.3 0 5.6-2 5.6-5.2M102 7.3c0-.3.2-.5.6-.5h21.8c.3 0 .5.2.5.5V12c0 .3-.2.6-.5.6h-15.8c-.2 0-.3 0-.3.3v9c0 .3 0 .4.3.4h12.7c.4 0 .6.2.6.5v4.8c0 .3-.3.5-.6.5h-12.7c-.2 0-.3.1-.3.3V38c0 .2 0 .3.3.3h15.8c.3 0 .6.2.6.5v4.7c0 .4-.3.6-.6.6h-21.8c-.4 0-.6-.2-.6-.6V7.3zm28.8 0c0-.3.2-.5.5-.5h5.2c.3 0 .5.2.5.5v30.6c0 .2.1.3.4.3H152c.3 0 .5.2.5.5v4.7c0 .4-.2.6-.5.6h-20.8c-.3 0-.5-.2-.5-.6zM178.5 44c-.4 0-.6-.1-.8-.5l-7.3-12.7h-.1L163 43.5c-.2.3-.4.5-.9.5h-5.7c-.4 0-.5-.3-.3-.7l10.7-18.5L157 7.4c-.2-.4 0-.7.3-.7h5.7c.5 0 .7.2.9.5l6.5 11.3h.1L177 7.3c.2-.3.4-.5.9-.5h5.7c.4 0 .5.3.3.7l-10 17.3 10.8 18.5c.2.4 0 .7-.3.7zm13.7-24.6c-.2 0-.2 0-.2-.2V9l-.1-.2h-3.2l-.2-.1V7c0-.1 0-.2.2-.2h8.7c.1 0 .2 0 .2.2v1.6s0 .2-.2.2H194.1v10.4c0 .2 0 .2-.2.2h-1.8zM199.8 7l.1-.2h1.7c.1 0 .2 0 .3.2l3.3 7.8h.1l3.3-7.8c0-.2.2-.2.3-.2h1.6c.1 0 .2 0 .2.2v12.2c0 .2 0 .2-.2.2h-1.6l-.1-.2v-7.7h-.1l-2.6 6-.3.2h-1c-.2 0-.3 0-.4-.2l-2.6-6v7.7c0 .2-.1.2-.3.2H200c-.1 0-.2 0-.2-.2V7z" fill="#666"/>
</svg>
